<?xml version="1.0" encoding="utf-8"?>
<!-- Generator: Adobe Illustrator 24.1.2, SVG Export Plug-In . SVG Version: 6.00 Build 0)  -->
<svg version="1.1" id="Calque_1" xmlns="http://www.w3.org/2000/svg" xmlns:xlink="http://www.w3.org/1999/xlink" x="0px" y="0px"
	 viewBox="0 0 882.8 841.9" style="enable-background:new 0 0 882.8 841.9;" xml:space="preserve">
<style type="text/css">
	.st0{display:none;}
	.st1{fill:#EAC33B;}
	.st2{fill:#FFFFFF;}
	.st3{fill:#4A4B49;}
	.st4{fill:#616160;}
	.st5{fill:#F7EB5A;}
	.st6{fill:#E02214;}
	.st7{fill:#FDFAE0;}
	.st8{fill:none;stroke:#1D1D1B;stroke-miterlimit:10;}
	.st9{fill:#F7EF8B;}
	.st10{fill:#F6EC73;}
	.st11{fill:#F7A61B;}
	.st12{fill:#1C2E65;}
	.st13{fill:none;}
	.st14{fill:#DC3223;}
	.st15{fill:#1E3246;}
</style>
<g id="Calque_1_1_" class="st0">
	
		<image style="display:inline;overflow:visible;enable-background:new    ;" width="1248" height="701" xlink:href="BC589D88.jpeg"  transform="matrix(1 0 0 1 -31.6596 9.9768)">
	</image>
</g>
<g id="Calque_2_1_">
	<path class="st1" d="M856.1,297.9c0,0-23.5-19.1-48-20.7s-80.7-9.2-80.7-9.2s-1.3-3.1-46.7,2s-376.3,79.1-376.3,79.1
		s-11.1,21.9-12.3,100.8L661,531l100.1,9.2l95-8.3c0,0,16.8-37.6,9.1-93.9c-15.6-112.9-0.6-4.1-15.6-112.9
		C848.4,316.4,857,307.3,856.1,297.9z"/>
	<path class="st2" d="M287.5,321.2"/>
</g>
<g id="Calque_3">
	<g>
		<path class="st2" d="M734.1,320.1"/>
		<path class="st3" d="M847.4,301.5c5.5,1,4.3,6,4.3,6l-6.5,16.7l-110.3-5.4l9.8-26.2c0,0,1.5-4.2,6.9-2.7"/>
		<path class="st4" d="M845.2,324.2l19.3,109l-99.2,1.1l-72-3.1c0,0-6.4,1.3-7.9-6.4c-1.5-7.7,0-93.4,0-93.4s-1.3-9.2,17.6-9.2
			c18.9,0,31.1,0,31.1,0l0.9-3.5"/>
		<path class="st4" d="M636.7,334.7l-2.4,76.1c0,0-0.3,6.3-6.3,6.5c-6,0.2-16.3,0-16.3,0s-2.9-0.3-3.9-3.9c-1-3.6,2.4-75.2,2.4-75.2
			s-0.2-4.9,4.4-5.6c4.6-0.7,17.7-1.7,17.7-1.7S636.8,331.1,636.7,334.7z"/>
		<path class="st4" d="M586.6,334.4l-103.9,12.8l-10.4,59.9c0,0-0.3,5.3,5.3,5.3s109,3.7,109,3.7s5.5,0.3,6.4-6.6
			c0.9-7,1.9-70.1,1.9-70.1S595,334.3,586.6,334.4z"/>
		<path class="st4" d="M474.5,354.3c0,0-1.9-5.1,8.2-7.1c10-2-10.1,58.3-10.1,58.3"/>
		<polyline class="st4" points="464.6,351 457.6,351.5 455.7,411.1 463.4,411.1 		"/>
		<polyline class="st4" points="451.9,352.1 444.4,352.8 443,411.1 450.3,411.1 		"/>
		<path class="st4" d="M436.5,357.7l-1.8,50.3c0,0,0.5,3.9-3.9,4.3c-4.4,0.3-13.1,0-13.1,0s-3.7-0.7-3.1-3.4s1.2-49.4,1.2-49.4
			s-0.9-4.6,5.3-4.8c6.1-0.2,12.8-0.9,12.8-0.9S436.6,353.7,436.5,357.7z"/>
		<path class="st4" d="M387.5,359.3l-10.5,0.4c0,0-3.7,0.3-3.4,4.2l-1,43.7c0,0-0.2,3.1,3.2,3.1l9.6-0.1c4.3,0.9,4.2-3.9,4.2-3.9
			l0.8-44.6C390.4,362.1,390.7,359.2,387.5,359.3z"/>
		<polygon class="st4" points="367.4,362.6 363.9,362.6 362.7,409.6 366.4,409.6 		"/>
		<polygon class="st4" points="360.1,363.7 357.4,363.7 356.3,409.6 359.6,409.6 		"/>
		<path class="st4" d="M349.8,404.8l1.1-38.4c0,0,0.3-3.4-4.5-3.2c-4.8,0.2-32.4,3.9-32.4,3.9s-4-0.4-3.4,3.8
			c0.5,4.2-0.1,33.9-0.1,33.9s0.2,3.6,3.6,3.9c3.4,0.3,31.9,1,31.9,1S349.7,409.1,349.8,404.8z"/>
	</g>
</g>
<g id="Calque_5">
	<polygon class="st5" points="701.1,462.3 725.4,461.2 725.8,456.4 	"/>
	<path class="st5" d="M725.4,461.2"/>
	<polygon class="st5" points="702.3,457.7 725.8,456.4 701.1,462.3 	"/>
	<polyline class="st5" points="726,461.2 726.4,456.4 702.9,457.7 701.8,462.3 	"/>
</g>
<g id="Calque_4">
	<polygon class="st6" points="688.9,450.9 698.3,450.9 697.7,454 695.2,454 692.9,469.8 688.9,469.8 691.2,454.1 688.2,454.1 	"/>
	<polygon class="st6" points="699.1,451 696.5,469.3 704.5,469.3 705.1,465 700.8,465.2 701.7,460.8 705,460.8 705.6,457.2 
		702.2,457.1 702.6,453.8 706.4,453.9 706.9,451 	"/>
	<path class="st6" d="M719.4,452.8l-1.6,1.9c0,0-0.8-1.5-4.2-1.4c-3.4,0.1-4.7,3.8-4.6,5.6c0.1,1.8-0.3,6.8,3.9,7.2
		c4.2,0.4,4.4-3.8,4.2-3.1l2.3,1.7c0,0-2.1,4.4-6.1,4s-6.8-1.4-6.9-9.3c-0.1-7.9,4.9-8.5,6.8-8.9
		C715.2,450.1,718.8,451.7,719.4,452.8z"/>
	<path class="st6" d="M682.4,458.7"/>
	<path class="st5" d="M701.7,454"/>
	<polyline class="st5" points="700.7,462.3 701.4,457.7 681.8,458.8 681,463.1 	"/>
</g>
<g id="Calque_6">
	<path class="st7" d="M858.7,471.8h-15.3c0,0-4.3,0.5-3.9,4.1c0.3,3.6,0,12.8,0,12.8s-0.1,3.6,3.2,3.6c3.3,0.1,15.1-0.3,15.1-0.3
		s3.6-0.4,3.6-4.9s0-12.1,0-12.1S861.7,472.1,858.7,471.8z"/>
	<path class="st7" d="M831.3,472.9l-26.3,0.7c0,0-3.9-0.7-3.9,4.7c0,5.4-0.4,13.7-0.4,13.7s-0.2,3.4,2.6,2.9s28.3-1.7,28.3-1.7
		s3,0.3,3.2-3.1s0.5-14,0.5-14S835.9,473.1,831.3,472.9z"/>
	<path class="st7" d="M792.3,474.3l-23.3,1c0,0-4.1-0.3-4.1,3.8s0,14.8,0,14.8s-0.8,3.3,2.8,3.5c3.5,0.2,24.6-1.3,24.6-1.3
		s3.1-0.2,3.3-3.8c0.2-3.6,0.4-14.7,0.4-14.7S795.9,474.2,792.3,474.3z"/>
	<path class="st7" d="M815.1,488.4"/>
	<polygon class="st8" points="599.6,495 639.4,501.2 646,325 605,329.6 	"/>
	<polyline class="st8" points="679.2,270.2 666.3,291.1 659.6,530.7 	"/>
	<path class="st8" d="M660.3,506.1"/>
	<line class="st8" x1="660" y1="507.1" x2="640.9" y2="503.4"/>
	<path class="st8" d="M739.6,514.7"/>
	<path class="st8" d="M698.1,514"/>
	<path class="st8" d="M666.3,291.1c0,0-257.4,46.9-257.4,47c-0.1,0.1,0.8-11.1,5.7-13.3"/>
	<path class="st8" d="M406.1,328c0,0-3.1-1.1-5.6,11.8l-99,18"/>
	<polygon class="st8" points="469.3,347.1 465.7,472.3 436.5,467.9 440.1,349.7 	"/>
	<polygon class="st8" points="367.4,455.3 351.8,452.7 354.5,360.5 370.6,358.6 	"/>
	<line class="st8" x1="307.8" y1="444" x2="309.1" y2="367.2"/>
	<line class="st8" x1="302.7" y1="367.2" x2="299.9" y2="444"/>
	<line class="st8" x1="666.3" y1="320.1" x2="299.3" y2="367.2"/>
	<path class="st8" d="M730,320.1"/>
	<path class="st9" d="M765.3,434.3"/>
	<polyline class="st10" points="639.2,502.8 639.2,511.2 402.5,466.9 402.5,461 	"/>
	<polyline class="st10" points="395.1,459.9 395.1,465.3 299.2,447 299.2,443.5 	"/>
	<polyline class="st11" points="581.5,458 577.8,457.8 577.8,445 581.5,445.4 	"/>
	<polyline class="st11" points="431.9,439.7 428.8,439 429,429.9 432.2,430.2 	"/>
	<polyline class="st11" points="374.2,426.1 371.6,425.9 371.6,433.4 374.2,433.8 	"/>
	<polyline class="st11" points="313.1,420.9 311,420.8 311,427 313.1,427.2 	"/>
</g>
<g>
	<g>
		<path class="st12" d="M211,366.3c-2.3,0.4-4.5,1.1-4.9,5.4c-0.3,4.3,1.7,6,3.8,7.6l9.1,7.4c0.6,0.5,0.5,1.8-0.2,1.8l-13.1,0.5
			c-0.7,0-1.1,0.6-1.1,1.6l-0.2,2.3l15.7-0.2c2.6,0,5.3-0.8,5.8-5.5c0.5-4.8-2-6.6-4.4-8.5l-9.3-7.1c-0.8-0.6-0.7-2,0.2-2.1
			l11.3-1.7c3.3-0.5,3.5-2.7,3.7-4.4L211,366.3"/>
		<path class="st12" d="M244.2,392.3l4-32.4l18.1-3.1c13.4-2.3,18.8,2.2,16.6,15.6l-3.1,19.4l-11.4,0.2l2.8-18.4
			c1.4-9-0.2-12.8-5.6-12l-8.6,1.3l-3.9,29.4L244.2,392.3"/>
		<path class="st12" d="M195.1,393l1.5-20.9c0.2-3,1.2-3.7,2.5-3.9l4.3-0.7l0,0.4c0,0-1.2,0.5-1.4,3.2l-1.7,21.8L195.1,393"/>
		<path class="st12" d="M230.1,392.5l2.8-25.8c0.4-3.7,2-4.6,3.9-4.9l6.6-1.1l-0.1,0.5c0,0-1.9,0.7-2.3,4l-3.2,27.2L230.1,392.5"/>
		<path class="st12" d="M184.6,370.8c-3.7,0.6-7.1,2.9-7.5,11.7l-0.6,10.9l3.9-0.1l0.1-1.6c0.3-4.9,6.8-6.7,6.8-6.7l-0.5,8.2
			l4.6-0.1l1.6-23.7L184.6,370.8 M187.5,382.9l-6.6,1.9l0.2-2.7c0.3-5.4,1.3-8,4.2-8.4l2.8-0.4L187.5,382.9z"/>
	</g>
</g>
<g>
	<g>
		<polygon class="st13" points="176,401.2 286.1,404 278.9,457.6 172,431.1 		"/>
		<g>
			<g>
				<path class="st14" d="M244.3,418.6l-1.4,1.3c1.4,3.7,1.1,8.3-1.2,11.7l0.6,0.1C245.2,427.9,245.8,422.8,244.3,418.6z
					 M239.2,418.9l0.7-0.7c-2.5-3.7-7.3-4-10.5-0.8c-1.8,1.9-2.9,4.5-2.9,7.1l0.5,0.1c0.5-3.6,3.2-6.3,6.3-6.1
					c3.2,0.2,5.5,3.6,5,7.5c-0.4,3.9-3.4,6.7-6.6,6.3c-1.6-0.2-2.8-1.2-3.7-2.5l-0.9,0.9c-2.8-4.6-2-11.3,1.7-15.2
					c3.1-3.3,7.5-3.8,10.8-1.5l0,0.1l0.6-0.6c-4.1-3.5-9.9-3-14,1.3c-4.6,4.9-5.6,13.1-2.1,18.8l0.9-0.9c1.4,2.3,3.3,3.7,5.6,4.1
					c5,0.8,9.8-3.5,10.5-9.8C241.5,424,240.7,421.1,239.2,418.9z"/>
				<path class="st15" d="M193.7,410.3l-2.6-0.2l-2.2,16.4l7.4,1.4l0.5-3.3l-4.9-0.8L193.7,410.3L193.7,410.3z M182.9,409.4
					l-5.5,14.9l2.1,0.4c0.7-2.2,2.7-3.7,4.3-3.6l-0.1-1.5c-0.7-0.3-1.7-0.2-2.4,0.1l2.4-6.4l1.3,12.4l2.3,0.4l-1.9-16.5L182.9,409.4
					z M209.5,415.2l4.4,0.4l-2.1,15.2l3.5,0.7l2.1-15.5l4.8,0.5l0.5-3.8l-12.7-1L209.5,415.2L209.5,415.2z M266.1,416.2l-7.6,8.5
					l-4.7-9.5l-4.4-0.4l-3,22.6l5,0.9l1.9-14.1l3.9,8.2l0.8,0.1l6.2-7l-2,14.8l5.8,1.1l3.4-24.9L266.1,416.2z M201.9,415.5
					c0.2-1.4,2.5-2.4,5.8-0.3l0.7-3.6c-0.5-0.4-2-1.1-3.2-1.2c-2.5-0.2-5.4,0.9-6,5.2c-0.9,6.4,6,5.2,5.3,8.8
					c-0.3,1.4-1.7,1.5-2.9,1.3c-1.3-0.2-2.5-0.8-3.2-1.5l-0.8,3.7c1,0.7,2.3,1.2,3.5,1.5c2.8,0.5,5.7-0.2,6.4-5.1
					C208.4,417.7,201.5,418.8,201.9,415.5z"/>
			</g>
		</g>
	</g>
</g>
</svg>
